<svg width="15" height="17" viewBox="0 0 15 17" fill="none" xmlns="http://www.w3.org/2000/svg">
<path d="M14.1667 3.33333H10.8333V2.5C10.8333 1.83696 10.5699 1.20107 10.1011 0.732233C9.63226 0.263392 8.99637 0 8.33333 0H6.66667C6.00363 0 5.36774 0.263392 4.8989 0.732233C4.43006 1.20107 4.16667 1.83696 4.16667 2.5V3.33333H0.833333C0.61232 3.33333 0.400358 3.42113 0.244078 3.57741C0.0877973 3.73369 0 3.94565 0 4.16667C0 4.38768 0.0877973 4.59964 0.244078 4.75592C0.400358 4.9122 0.61232 5 0.833333 5H1.66667V14.1667C1.66667 14.8297 1.93006 15.4656 2.3989 15.9344C2.86774 16.4033 3.50363 16.6667 4.16667 16.6667H10.8333C11.4964 16.6667 12.1323 16.4033 12.6011 15.9344C13.0699 15.4656 13.3333 14.8297 13.3333 14.1667V5H14.1667C14.3877 5 14.5996 4.9122 14.7559 4.75592C14.9122 4.59964 15 4.38768 15 4.16667C15 3.94565 14.9122 3.73369 14.7559 3.57741C14.5996 3.42113 14.3877 3.33333 14.1667 3.33333ZM5.83333 2.5C5.83333 2.27899 5.92113 2.06702 6.07741 1.91074C6.23369 1.75446 6.44565 1.66667 6.66667 1.66667H8.33333C8.55435 1.66667 8.76631 1.75446 8.92259 1.91074C9.07887 2.06702 9.16667 2.27899 9.16667 2.5V3.33333H5.83333V2.5ZM11.6667 14.1667C11.6667 14.3877 11.5789 14.5996 11.4226 14.7559C11.2663 14.9122 11.0543 15 10.8333 15H4.16667C3.94565 15 3.73369 14.9122 3.57741 14.7559C3.42113 14.5996 3.33333 14.3877 3.33333 14.1667V5H11.6667V14.1667Z" fill="white"/>
<rect x="5.5" y="6" width="1" height="7" rx="0.5" fill="white"/>
<rect x="8.5" y="6" width="1" height="7" rx="0.5" fill="white"/>
</svg>
