<svg width="20" height="20" viewBox="0 0 20 20" fill="none" xmlns="http://www.w3.org/2000/svg">
<circle cx="10" cy="10" r="10" fill="#FAFAFA"/>
<mask id="path-2-inside-1_206_7" fill="white">
<path d="M9.5652 9.5652V4.78259H10.4348V9.5652H15.2174V10.4348H10.4348V15.2174H9.5652V10.4348H4.78259V9.5652H9.5652Z"/>
</mask>
<path d="M9.5652 4.78259V3.78259H8.5652V4.78259H9.5652ZM9.5652 9.5652V10.5652H10.5652V9.5652H9.5652ZM4.78259 9.5652V8.5652H3.78259V9.5652H4.78259ZM4.78259 10.4348H3.78259V11.4348H4.78259V10.4348ZM9.5652 10.4348H10.5652V9.43477H9.5652V10.4348ZM9.5652 15.2174H8.5652V16.2174H9.5652V15.2174ZM10.4348 15.2174V16.2174H11.4348V15.2174H10.4348ZM10.4348 10.4348V9.43477H9.43477V10.4348H10.4348ZM15.2174 10.4348V11.4348H16.2174V10.4348H15.2174ZM15.2174 9.5652H16.2174V8.5652H15.2174V9.5652ZM10.4348 9.5652H9.43477V10.5652H10.4348V9.5652ZM10.4348 4.78259H11.4348V3.78259H10.4348V4.78259ZM8.5652 4.78259V9.5652H10.5652V4.78259H8.5652ZM9.5652 8.5652H4.78259V10.5652H9.5652V8.5652ZM3.78259 9.5652V10.4348H5.78259V9.5652H3.78259ZM4.78259 11.4348H9.5652V9.43477H4.78259V11.4348ZM8.5652 10.4348V15.2174H10.5652V10.4348H8.5652ZM9.5652 16.2174H10.4348V14.2174H9.5652V16.2174ZM11.4348 15.2174V10.4348H9.43477V15.2174H11.4348ZM10.4348 11.4348H15.2174V9.43477H10.4348V11.4348ZM16.2174 10.4348V9.5652H14.2174V10.4348H16.2174ZM15.2174 8.5652H10.4348V10.5652H15.2174V8.5652ZM11.4348 9.5652V4.78259H9.43477V9.5652H11.4348ZM10.4348 3.78259H9.5652V5.78259H10.4348V3.78259Z" fill="black" mask="url(#path-2-inside-1_206_7)"/>
</svg>
