<svg width="20" height="20" viewBox="0 0 20 20" fill="none" xmlns="http://www.w3.org/2000/svg">
<path d="M2.22222 2.22222V17.7778H17.7778V5.36492L14.6351 2.22222H2.22222ZM1.11111 0H15.5556L19.6746 4.11901C19.8829 4.32738 20 4.61 20 4.90468V18.8889C20 19.5026 19.5026 20 18.8889 20H1.11111C0.497467 20 0 19.5026 0 18.8889V1.11111C0 0.497467 0.497467 0 1.11111 0ZM10 16.6667C8.159 16.6667 6.66667 15.1743 6.66667 13.3333C6.66667 11.4923 8.159 10 10 10C11.841 10 13.3333 11.4923 13.3333 13.3333C13.3333 15.1743 11.841 16.6667 10 16.6667ZM2.22222 2.22222H13.3333V3.29167V4.38655V5.5V6.5H7.5H2.22222V2.22222Z" fill="white"/>
</svg>
